<mxfile host="app.diagrams.net" agent="Mozilla/5.0 (Macintosh; Intel Mac OS X 10_15_7) AppleWebKit/537.36 (KHTML, like Gecko) Chrome/135.0.0.0 Safari/537.36" version="26.0.8">
  <diagram name="Page-1" id="Ujbwj95MNwFOvTW-vX64">
    <mxGraphModel dx="2565" dy="2570" grid="1" gridSize="10" guides="1" tooltips="1" connect="1" arrows="1" fold="1" page="1" pageScale="1" pageWidth="850" pageHeight="1100" math="0" shadow="0">
      <root>
        <mxCell id="0" />
        <mxCell id="1" parent="0" />
        <mxCell id="ppyI8dV4X2BFpjyLbfqM-2" value="Login" style="rounded=1;whiteSpace=wrap;html=1;" vertex="1" parent="1">
          <mxGeometry x="180" y="560" width="130" height="80" as="geometry" />
        </mxCell>
        <mxCell id="ppyI8dV4X2BFpjyLbfqM-3" value="Register" style="rounded=1;whiteSpace=wrap;html=1;" vertex="1" parent="1">
          <mxGeometry x="180" y="730" width="130" height="80" as="geometry" />
        </mxCell>
        <mxCell id="ppyI8dV4X2BFpjyLbfqM-4" value="Dashboard" style="rounded=1;whiteSpace=wrap;html=1;" vertex="1" parent="1">
          <mxGeometry x="520" y="560" width="130" height="80" as="geometry" />
        </mxCell>
        <mxCell id="ppyI8dV4X2BFpjyLbfqM-5" value="" style="endArrow=classic;html=1;rounded=0;exitX=1;exitY=0.5;exitDx=0;exitDy=0;entryX=0;entryY=0.5;entryDx=0;entryDy=0;" edge="1" parent="1" source="ppyI8dV4X2BFpjyLbfqM-2" target="ppyI8dV4X2BFpjyLbfqM-4">
          <mxGeometry width="50" height="50" relative="1" as="geometry">
            <mxPoint x="410" y="620" as="sourcePoint" />
            <mxPoint x="460" y="570" as="targetPoint" />
          </mxGeometry>
        </mxCell>
        <mxCell id="ppyI8dV4X2BFpjyLbfqM-6" value="" style="endArrow=classic;html=1;rounded=0;exitX=0.75;exitY=0;exitDx=0;exitDy=0;entryX=0.75;entryY=1;entryDx=0;entryDy=0;" edge="1" parent="1" source="ppyI8dV4X2BFpjyLbfqM-3" target="ppyI8dV4X2BFpjyLbfqM-2">
          <mxGeometry width="50" height="50" relative="1" as="geometry">
            <mxPoint x="320" y="610" as="sourcePoint" />
            <mxPoint x="540" y="700" as="targetPoint" />
          </mxGeometry>
        </mxCell>
        <mxCell id="ppyI8dV4X2BFpjyLbfqM-8" value="qqq" style="rounded=1;whiteSpace=wrap;html=1;fillColor=none;strokeColor=#6F0000;fontColor=#ffffff;strokeWidth=10;" vertex="1" parent="1">
          <mxGeometry x="90" y="-220" width="1260" height="360" as="geometry" />
        </mxCell>
        <mxCell id="ppyI8dV4X2BFpjyLbfqM-9" value="" style="endArrow=classic;html=1;rounded=0;exitX=0.5;exitY=0;exitDx=0;exitDy=0;dashed=1;" edge="1" parent="1" source="ppyI8dV4X2BFpjyLbfqM-3" target="ppyI8dV4X2BFpjyLbfqM-47">
          <mxGeometry width="50" height="50" relative="1" as="geometry">
            <mxPoint x="310" y="360" as="sourcePoint" />
            <mxPoint x="530" y="450" as="targetPoint" />
          </mxGeometry>
        </mxCell>
        <mxCell id="ppyI8dV4X2BFpjyLbfqM-10" value="Email,&lt;div&gt;Password&lt;/div&gt;" style="text;html=1;align=center;verticalAlign=middle;resizable=0;points=[];autosize=1;strokeColor=none;fillColor=none;" vertex="1" parent="1">
          <mxGeometry x="275" y="240" width="80" height="40" as="geometry" />
        </mxCell>
        <mxCell id="ppyI8dV4X2BFpjyLbfqM-12" value="" style="endArrow=classic;html=1;rounded=0;exitX=0.25;exitY=0;exitDx=0;exitDy=0;entryX=0.25;entryY=1;entryDx=0;entryDy=0;" edge="1" parent="1" source="ppyI8dV4X2BFpjyLbfqM-3" target="ppyI8dV4X2BFpjyLbfqM-2">
          <mxGeometry width="50" height="50" relative="1" as="geometry">
            <mxPoint x="210" y="730" as="sourcePoint" />
            <mxPoint x="430" y="650" as="targetPoint" />
          </mxGeometry>
        </mxCell>
        <mxCell id="ppyI8dV4X2BFpjyLbfqM-13" value="" style="endArrow=none;html=1;rounded=0;exitX=0.332;exitY=-0.011;exitDx=0;exitDy=0;entryX=0.323;entryY=0.986;entryDx=0;entryDy=0;startArrow=classic;startFill=1;exitPerimeter=0;entryPerimeter=0;" edge="1" parent="1" source="ppyI8dV4X2BFpjyLbfqM-3" target="ppyI8dV4X2BFpjyLbfqM-2">
          <mxGeometry width="50" height="50" relative="1" as="geometry">
            <mxPoint x="223" y="730" as="sourcePoint" />
            <mxPoint x="223" y="640" as="targetPoint" />
          </mxGeometry>
        </mxCell>
        <mxCell id="ppyI8dV4X2BFpjyLbfqM-14" value="" style="endArrow=classic;html=1;rounded=0;exitX=0.5;exitY=0;exitDx=0;exitDy=0;entryX=0.5;entryY=1;entryDx=0;entryDy=0;dashed=1;" edge="1" parent="1" source="ppyI8dV4X2BFpjyLbfqM-2" target="ppyI8dV4X2BFpjyLbfqM-49">
          <mxGeometry width="50" height="50" relative="1" as="geometry">
            <mxPoint x="245" y="490" as="sourcePoint" />
            <mxPoint x="455" y="120" as="targetPoint" />
          </mxGeometry>
        </mxCell>
        <mxCell id="ppyI8dV4X2BFpjyLbfqM-15" value="Email,&lt;div&gt;Password&lt;/div&gt;" style="text;html=1;align=center;verticalAlign=middle;resizable=0;points=[];autosize=1;strokeColor=none;fillColor=none;" vertex="1" parent="1">
          <mxGeometry x="210" y="160" width="80" height="40" as="geometry" />
        </mxCell>
        <mxCell id="ppyI8dV4X2BFpjyLbfqM-16" value="Add Patient" style="rounded=1;whiteSpace=wrap;html=1;" vertex="1" parent="1">
          <mxGeometry x="760" y="450" width="130" height="80" as="geometry" />
        </mxCell>
        <mxCell id="ppyI8dV4X2BFpjyLbfqM-17" value="" style="endArrow=classic;html=1;rounded=0;exitX=1.006;exitY=0.17;exitDx=0;exitDy=0;entryX=0;entryY=0.75;entryDx=0;entryDy=0;exitPerimeter=0;" edge="1" parent="1" source="ppyI8dV4X2BFpjyLbfqM-4" target="ppyI8dV4X2BFpjyLbfqM-16">
          <mxGeometry width="50" height="50" relative="1" as="geometry">
            <mxPoint x="310" y="520" as="sourcePoint" />
            <mxPoint x="530" y="610" as="targetPoint" />
          </mxGeometry>
        </mxCell>
        <mxCell id="ppyI8dV4X2BFpjyLbfqM-18" value="" style="endArrow=classic;html=1;rounded=0;exitX=0.5;exitY=0;exitDx=0;exitDy=0;entryX=0.25;entryY=1;entryDx=0;entryDy=0;dashed=1;" edge="1" parent="1" source="ppyI8dV4X2BFpjyLbfqM-16" target="ppyI8dV4X2BFpjyLbfqM-54">
          <mxGeometry width="50" height="50" relative="1" as="geometry">
            <mxPoint x="245" y="490" as="sourcePoint" />
            <mxPoint x="455" y="120" as="targetPoint" />
          </mxGeometry>
        </mxCell>
        <mxCell id="ppyI8dV4X2BFpjyLbfqM-19" value="Core_X data&lt;div&gt;Patient info&amp;nbsp;&lt;/div&gt;" style="text;html=1;align=center;verticalAlign=middle;resizable=0;points=[];autosize=1;strokeColor=none;fillColor=none;" vertex="1" parent="1">
          <mxGeometry x="760" y="210" width="90" height="40" as="geometry" />
        </mxCell>
        <mxCell id="ppyI8dV4X2BFpjyLbfqM-20" value="q" style="rounded=1;whiteSpace=wrap;html=1;fillColor=none;fontColor=#ffffff;strokeColor=#006EAF;strokeWidth=10;" vertex="1" parent="1">
          <mxGeometry x="90" y="-670" width="1260" height="270" as="geometry" />
        </mxCell>
        <mxCell id="ppyI8dV4X2BFpjyLbfqM-21" value="" style="endArrow=classic;html=1;rounded=0;exitX=0.408;exitY=-0.004;exitDx=0;exitDy=0;entryX=0.41;entryY=0.996;entryDx=0;entryDy=0;dashed=1;exitPerimeter=0;entryPerimeter=0;" edge="1" parent="1" source="ppyI8dV4X2BFpjyLbfqM-8" target="ppyI8dV4X2BFpjyLbfqM-20">
          <mxGeometry width="50" height="50" relative="1" as="geometry">
            <mxPoint x="420" y="110" as="sourcePoint" />
            <mxPoint x="630" y="-260" as="targetPoint" />
          </mxGeometry>
        </mxCell>
        <mxCell id="ppyI8dV4X2BFpjyLbfqM-22" value="" style="endArrow=classic;html=1;rounded=0;dashed=1;exitX=0.537;exitY=1.002;exitDx=0;exitDy=0;exitPerimeter=0;" edge="1" parent="1" source="ppyI8dV4X2BFpjyLbfqM-20">
          <mxGeometry width="50" height="50" relative="1" as="geometry">
            <mxPoint x="763" y="-401" as="sourcePoint" />
            <mxPoint x="763" y="-224" as="targetPoint" />
          </mxGeometry>
        </mxCell>
        <mxCell id="ppyI8dV4X2BFpjyLbfqM-23" value="" style="endArrow=classic;html=1;rounded=0;exitX=0.5;exitY=1;exitDx=0;exitDy=0;entryX=0.5;entryY=0;entryDx=0;entryDy=0;dashed=1;" edge="1" parent="1" source="ppyI8dV4X2BFpjyLbfqM-52" target="ppyI8dV4X2BFpjyLbfqM-4">
          <mxGeometry width="50" height="50" relative="1" as="geometry">
            <mxPoint x="570" y="470" as="sourcePoint" />
            <mxPoint x="780" y="100" as="targetPoint" />
          </mxGeometry>
        </mxCell>
        <mxCell id="ppyI8dV4X2BFpjyLbfqM-24" value="Patients List" style="text;html=1;align=center;verticalAlign=middle;resizable=0;points=[];autosize=1;strokeColor=none;fillColor=none;" vertex="1" parent="1">
          <mxGeometry x="640" y="180" width="90" height="30" as="geometry" />
        </mxCell>
        <mxCell id="ppyI8dV4X2BFpjyLbfqM-25" value="" style="endArrow=classic;html=1;rounded=0;exitX=1.006;exitY=0.17;exitDx=0;exitDy=0;exitPerimeter=0;entryX=-0.011;entryY=0.353;entryDx=0;entryDy=0;entryPerimeter=0;" edge="1" parent="1" target="ppyI8dV4X2BFpjyLbfqM-26">
          <mxGeometry width="50" height="50" relative="1" as="geometry">
            <mxPoint x="650" y="634" as="sourcePoint" />
            <mxPoint x="749" y="690" as="targetPoint" />
          </mxGeometry>
        </mxCell>
        <mxCell id="ppyI8dV4X2BFpjyLbfqM-26" value="View Patient" style="rounded=1;whiteSpace=wrap;html=1;" vertex="1" parent="1">
          <mxGeometry x="760" y="690" width="130" height="80" as="geometry" />
        </mxCell>
        <mxCell id="ppyI8dV4X2BFpjyLbfqM-27" value="" style="endArrow=classic;html=1;rounded=0;exitX=0.25;exitY=1;exitDx=0;exitDy=0;entryX=0.5;entryY=0;entryDx=0;entryDy=0;dashed=1;" edge="1" parent="1" source="ppyI8dV4X2BFpjyLbfqM-55" target="ppyI8dV4X2BFpjyLbfqM-26">
          <mxGeometry width="50" height="50" relative="1" as="geometry">
            <mxPoint x="729" y="320" as="sourcePoint" />
            <mxPoint x="710" y="119" as="targetPoint" />
          </mxGeometry>
        </mxCell>
        <mxCell id="ppyI8dV4X2BFpjyLbfqM-29" value="Patient Info&lt;div&gt;+ prediction&lt;/div&gt;" style="text;html=1;align=center;verticalAlign=middle;resizable=0;points=[];autosize=1;strokeColor=none;fillColor=none;" vertex="1" parent="1">
          <mxGeometry x="880" y="300" width="90" height="40" as="geometry" />
        </mxCell>
        <mxCell id="ppyI8dV4X2BFpjyLbfqM-31" value="" style="endArrow=classic;html=1;rounded=0;exitX=0.816;exitY=1.017;exitDx=0;exitDy=0;entryX=0.831;entryY=-0.004;entryDx=0;entryDy=0;exitPerimeter=0;entryPerimeter=0;" edge="1" parent="1" source="ppyI8dV4X2BFpjyLbfqM-16" target="ppyI8dV4X2BFpjyLbfqM-26">
          <mxGeometry width="50" height="50" relative="1" as="geometry">
            <mxPoint x="830" y="594" as="sourcePoint" />
            <mxPoint x="929" y="550" as="targetPoint" />
          </mxGeometry>
        </mxCell>
        <mxCell id="ppyI8dV4X2BFpjyLbfqM-32" value="" style="endArrow=classic;html=1;rounded=0;exitX=0.75;exitY=1;exitDx=0;exitDy=0;entryX=0.382;entryY=-0.006;entryDx=0;entryDy=0;entryPerimeter=0;" edge="1" parent="1" source="ppyI8dV4X2BFpjyLbfqM-4" target="ppyI8dV4X2BFpjyLbfqM-33">
          <mxGeometry width="50" height="50" relative="1" as="geometry">
            <mxPoint x="571" y="720" as="sourcePoint" />
            <mxPoint x="620" y="730" as="targetPoint" />
          </mxGeometry>
        </mxCell>
        <mxCell id="ppyI8dV4X2BFpjyLbfqM-33" value="My Profile" style="rounded=1;whiteSpace=wrap;html=1;" vertex="1" parent="1">
          <mxGeometry x="605" y="760" width="130" height="80" as="geometry" />
        </mxCell>
        <mxCell id="ppyI8dV4X2BFpjyLbfqM-34" value="" style="endArrow=classic;html=1;rounded=0;exitX=0.5;exitY=1;exitDx=0;exitDy=0;entryX=0.662;entryY=0.025;entryDx=0;entryDy=0;dashed=1;entryPerimeter=0;" edge="1" parent="1" source="ppyI8dV4X2BFpjyLbfqM-53" target="ppyI8dV4X2BFpjyLbfqM-33">
          <mxGeometry width="50" height="50" relative="1" as="geometry">
            <mxPoint x="698" y="141.5" as="sourcePoint" />
            <mxPoint x="680" y="428.5" as="targetPoint" />
          </mxGeometry>
        </mxCell>
        <mxCell id="ppyI8dV4X2BFpjyLbfqM-35" value="Doctor Info" style="text;html=1;align=center;verticalAlign=middle;resizable=0;points=[];autosize=1;strokeColor=none;fillColor=none;" vertex="1" parent="1">
          <mxGeometry x="520" y="165" width="80" height="30" as="geometry" />
        </mxCell>
        <mxCell id="ppyI8dV4X2BFpjyLbfqM-36" value="Edit Patient" style="rounded=1;whiteSpace=wrap;html=1;" vertex="1" parent="1">
          <mxGeometry x="990" y="560" width="130" height="80" as="geometry" />
        </mxCell>
        <mxCell id="ppyI8dV4X2BFpjyLbfqM-37" value="" style="endArrow=classic;html=1;rounded=0;exitX=1;exitY=0.5;exitDx=0;exitDy=0;entryX=0;entryY=0.75;entryDx=0;entryDy=0;" edge="1" parent="1" source="ppyI8dV4X2BFpjyLbfqM-26" target="ppyI8dV4X2BFpjyLbfqM-36">
          <mxGeometry width="50" height="50" relative="1" as="geometry">
            <mxPoint x="866" y="561" as="sourcePoint" />
            <mxPoint x="868" y="670" as="targetPoint" />
          </mxGeometry>
        </mxCell>
        <mxCell id="ppyI8dV4X2BFpjyLbfqM-39" value="" style="endArrow=classic;html=1;rounded=0;exitX=0.25;exitY=0;exitDx=0;exitDy=0;entryX=0.5;entryY=1;entryDx=0;entryDy=0;dashed=1;" edge="1" parent="1" source="ppyI8dV4X2BFpjyLbfqM-36" target="ppyI8dV4X2BFpjyLbfqM-56">
          <mxGeometry width="50" height="50" relative="1" as="geometry">
            <mxPoint x="1039" y="414" as="sourcePoint" />
            <mxPoint x="1020" y="213" as="targetPoint" />
          </mxGeometry>
        </mxCell>
        <mxCell id="ppyI8dV4X2BFpjyLbfqM-40" value="Core_X data&lt;div&gt;Patient info&amp;nbsp;&lt;/div&gt;" style="text;html=1;align=center;verticalAlign=middle;resizable=0;points=[];autosize=1;strokeColor=none;fillColor=none;" vertex="1" parent="1">
          <mxGeometry x="1130" y="260" width="90" height="40" as="geometry" />
        </mxCell>
        <mxCell id="ppyI8dV4X2BFpjyLbfqM-44" value="" style="rounded=1;whiteSpace=wrap;html=1;fillColor=none;strokeColor=#d79b00;strokeWidth=10;" vertex="1" parent="1">
          <mxGeometry x="90" y="440" width="1260" height="430" as="geometry" />
        </mxCell>
        <mxCell id="ppyI8dV4X2BFpjyLbfqM-41" value="" style="endArrow=classic;html=1;rounded=0;entryX=1;entryY=0.25;entryDx=0;entryDy=0;exitX=0;exitY=0.5;exitDx=0;exitDy=0;" edge="1" parent="1" source="ppyI8dV4X2BFpjyLbfqM-36" target="ppyI8dV4X2BFpjyLbfqM-26">
          <mxGeometry width="50" height="50" relative="1" as="geometry">
            <mxPoint x="990" y="590" as="sourcePoint" />
            <mxPoint x="1000" y="640" as="targetPoint" />
          </mxGeometry>
        </mxCell>
        <mxCell id="ppyI8dV4X2BFpjyLbfqM-45" value="&lt;font style=&quot;font-size: 50px;&quot;&gt;Frontend&lt;/font&gt;" style="text;html=1;align=center;verticalAlign=middle;resizable=0;points=[];autosize=1;strokeColor=none;fillColor=none;fontColor=#ECB041;" vertex="1" parent="1">
          <mxGeometry x="1390" y="520" width="220" height="70" as="geometry" />
        </mxCell>
        <mxCell id="ppyI8dV4X2BFpjyLbfqM-46" value="&lt;font style=&quot;font-size: 50px;&quot;&gt;Backend&lt;/font&gt;" style="text;html=1;align=center;verticalAlign=middle;resizable=0;points=[];autosize=1;strokeColor=none;fillColor=none;fontColor=#6F0000;" vertex="1" parent="1">
          <mxGeometry x="1410" y="-110" width="220" height="70" as="geometry" />
        </mxCell>
        <mxCell id="ppyI8dV4X2BFpjyLbfqM-47" value="/Register" style="rounded=1;whiteSpace=wrap;html=1;" vertex="1" parent="1">
          <mxGeometry x="250" y="-130" width="130" height="80" as="geometry" />
        </mxCell>
        <mxCell id="ppyI8dV4X2BFpjyLbfqM-49" value="/Login" style="rounded=1;whiteSpace=wrap;html=1;" vertex="1" parent="1">
          <mxGeometry x="150" y="-20" width="130" height="80" as="geometry" />
        </mxCell>
        <mxCell id="ppyI8dV4X2BFpjyLbfqM-50" value="/Logout" style="rounded=1;whiteSpace=wrap;html=1;" vertex="1" parent="1">
          <mxGeometry x="430" y="-130" width="130" height="80" as="geometry" />
        </mxCell>
        <mxCell id="ppyI8dV4X2BFpjyLbfqM-51" value="/CheckSession" style="rounded=1;whiteSpace=wrap;html=1;" vertex="1" parent="1">
          <mxGeometry x="340" y="-20" width="130" height="80" as="geometry" />
        </mxCell>
        <mxCell id="ppyI8dV4X2BFpjyLbfqM-52" value="/MyPatients" style="rounded=1;whiteSpace=wrap;html=1;" vertex="1" parent="1">
          <mxGeometry x="620" y="-130" width="130" height="80" as="geometry" />
        </mxCell>
        <mxCell id="ppyI8dV4X2BFpjyLbfqM-53" value="/Me" style="rounded=1;whiteSpace=wrap;html=1;" vertex="1" parent="1">
          <mxGeometry x="520" y="-20" width="130" height="80" as="geometry" />
        </mxCell>
        <mxCell id="ppyI8dV4X2BFpjyLbfqM-54" value="/AddPatient" style="rounded=1;whiteSpace=wrap;html=1;" vertex="1" parent="1">
          <mxGeometry x="830" y="-130" width="130" height="80" as="geometry" />
        </mxCell>
        <mxCell id="ppyI8dV4X2BFpjyLbfqM-55" value="/Patient/:id" style="rounded=1;whiteSpace=wrap;html=1;" vertex="1" parent="1">
          <mxGeometry x="930" y="-20" width="130" height="80" as="geometry" />
        </mxCell>
        <mxCell id="ppyI8dV4X2BFpjyLbfqM-56" value="/Patient/:id/update" style="rounded=1;whiteSpace=wrap;html=1;" vertex="1" parent="1">
          <mxGeometry x="1130" y="-20" width="130" height="80" as="geometry" />
        </mxCell>
        <mxCell id="ppyI8dV4X2BFpjyLbfqM-57" value="/Patient/:id/delete" style="rounded=1;whiteSpace=wrap;html=1;" vertex="1" parent="1">
          <mxGeometry x="1040" y="-130" width="130" height="80" as="geometry" />
        </mxCell>
        <mxCell id="ppyI8dV4X2BFpjyLbfqM-58" value="DoctorInfo" style="rounded=1;whiteSpace=wrap;html=1;" vertex="1" parent="1">
          <mxGeometry x="310" y="-570" width="130" height="80" as="geometry" />
        </mxCell>
        <mxCell id="ppyI8dV4X2BFpjyLbfqM-59" value="PatientInfo" style="rounded=1;whiteSpace=wrap;html=1;" vertex="1" parent="1">
          <mxGeometry x="930" y="-575" width="130" height="80" as="geometry" />
        </mxCell>
        <mxCell id="ppyI8dV4X2BFpjyLbfqM-60" value="&lt;font style=&quot;font-size: 50px;&quot;&gt;Database&lt;/font&gt;" style="text;html=1;align=center;verticalAlign=middle;resizable=0;points=[];autosize=1;strokeColor=none;fillColor=none;fontColor=#006EAF;" vertex="1" parent="1">
          <mxGeometry x="1400" y="-620" width="240" height="70" as="geometry" />
        </mxCell>
        <mxCell id="ppyI8dV4X2BFpjyLbfqM-61" value="" style="shape=image;verticalLabelPosition=bottom;labelBackgroundColor=default;verticalAlign=top;aspect=fixed;imageAspect=0;image=https://brandlogos.net/wp-content/uploads/2017/05/mysql-logo_brandlogos.net_fqzvv-512x349.png;" vertex="1" parent="1">
          <mxGeometry x="1443.36" y="-550" width="166.64" height="113.59" as="geometry" />
        </mxCell>
        <mxCell id="ppyI8dV4X2BFpjyLbfqM-62" value="" style="shape=image;verticalLabelPosition=bottom;labelBackgroundColor=default;verticalAlign=top;aspect=fixed;imageAspect=0;image=https://upload.wikimedia.org/wikipedia/commons/thumb/1/1a/FastAPI_logo.svg/2560px-FastAPI_logo.svg.png;" vertex="1" parent="1">
          <mxGeometry x="1380" y="-20" width="285.95" height="52.9" as="geometry" />
        </mxCell>
        <mxCell id="ppyI8dV4X2BFpjyLbfqM-63" value="" style="shape=image;verticalLabelPosition=bottom;labelBackgroundColor=default;verticalAlign=top;aspect=fixed;imageAspect=0;image=https://static-00.iconduck.com/assets.00/react-original-wordmark-icon-840x1024-vhmauxp6.png;" vertex="1" parent="1">
          <mxGeometry x="1420" y="605" width="160" height="195.05" as="geometry" />
        </mxCell>
        <mxCell id="ppyI8dV4X2BFpjyLbfqM-64" value="" style="endArrow=classic;html=1;rounded=0;exitX=0;exitY=0;exitDx=0;exitDy=0;entryX=0.5;entryY=1;entryDx=0;entryDy=0;dashed=1;" edge="1" parent="1" source="ppyI8dV4X2BFpjyLbfqM-33" target="ppyI8dV4X2BFpjyLbfqM-50">
          <mxGeometry width="50" height="50" relative="1" as="geometry">
            <mxPoint x="595" y="70" as="sourcePoint" />
            <mxPoint x="701" y="772" as="targetPoint" />
          </mxGeometry>
        </mxCell>
        <mxCell id="ppyI8dV4X2BFpjyLbfqM-65" value="" style="endArrow=classic;html=1;rounded=0;exitX=0.5;exitY=1;exitDx=0;exitDy=0;dashed=1;" edge="1" parent="1" source="ppyI8dV4X2BFpjyLbfqM-51">
          <mxGeometry width="50" height="50" relative="1" as="geometry">
            <mxPoint x="560" y="910" as="sourcePoint" />
            <mxPoint x="430" y="260" as="targetPoint" />
          </mxGeometry>
        </mxCell>
        <mxCell id="ppyI8dV4X2BFpjyLbfqM-66" value="Called on&amp;nbsp;&lt;div&gt;every request&lt;/div&gt;" style="text;html=1;align=center;verticalAlign=middle;resizable=0;points=[];autosize=1;strokeColor=none;fillColor=none;" vertex="1" parent="1">
          <mxGeometry x="390" y="260" width="100" height="40" as="geometry" />
        </mxCell>
        <mxCell id="ppyI8dV4X2BFpjyLbfqM-67" value="" style="endArrow=classic;html=1;rounded=0;entryX=0.5;entryY=1;entryDx=0;entryDy=0;dashed=1;exitX=1;exitY=0;exitDx=0;exitDy=0;" edge="1" parent="1" source="ppyI8dV4X2BFpjyLbfqM-26" target="ppyI8dV4X2BFpjyLbfqM-57">
          <mxGeometry width="50" height="50" relative="1" as="geometry">
            <mxPoint x="1010" y="360" as="sourcePoint" />
            <mxPoint x="835" y="700" as="targetPoint" />
          </mxGeometry>
        </mxCell>
        <mxCell id="ppyI8dV4X2BFpjyLbfqM-68" value="PatientId" style="text;html=1;align=center;verticalAlign=middle;resizable=0;points=[];autosize=1;strokeColor=none;fillColor=none;" vertex="1" parent="1">
          <mxGeometry x="1010" y="285" width="70" height="30" as="geometry" />
        </mxCell>
      </root>
    </mxGraphModel>
  </diagram>
</mxfile>
